<?xml version="1.0" encoding="UTF-8"?>
<svg id="Camada_2" xmlns="http://www.w3.org/2000/svg" viewBox="0 0 467.14 166.12">
  <defs>
    <style>
      .cls-1 {
        fill: #f0f0f0;
        fill-rule: evenodd;
      }
    </style>
  </defs>
  <g id="Camada_1-2" data-name="Camada_1">
    <path class="cls-1" d="M462.02,149.47c-1.25-1.24-2.97-2.01-4.87-2.01s-3.61.78-4.86,2.01c-1.25,1.24-2.01,2.96-2.01,4.86s.77,3.63,2.01,4.87c1.25,1.24,2.97,2.01,4.86,2.01s3.62-.78,4.87-2.01c1.24-1.24,2.01-2.97,2.01-4.87s-.78-3.62-2.01-4.86h0ZM457.15,144.35c2.76,0,5.26,1.11,7.07,2.93,1.8,1.8,2.92,4.3,2.92,7.05s-1.12,5.27-2.92,7.06c-1.82,1.82-4.31,2.93-7.07,2.93s-5.25-1.11-7.06-2.93c-1.8-1.8-2.93-4.3-2.93-7.06s1.13-5.26,2.93-7.05c1.81-1.82,4.31-2.93,7.06-2.93h0ZM455.33,153.96v-2.37h1.85c1.11,0,1.66.42,1.66,1.19,0,.89-.55,1.18-1.66,1.18h-1.85ZM461.53,159.16h-2.64c-.2-.25-.33-.86-.39-1.86-.08-1.1-.56-1.34-1.43-1.34h-1.73v3.2h-2.56v-9.66h4.87c2.5,0,3.75,1.18,3.75,3.07,0,1.4-.89,2.34-2.06,2.49.99.19,1.58.77,1.69,1.88.14,1.44.18,1.87.5,2.22h0ZM0,123.46h75.54l45.86-28.67,1.63-1.02c3.92-2.81,6.49-7.41,6.49-12.61,0-8.56-6.94-15.5-15.49-15.5s-15.5,6.94-15.5,15.67v3.61h-23.05v-3.61c0-11.02,4.47-20.8,11.98-28.1,6.01-5.9,9.6-13.75,9.6-22.35,0-16.99-13.89-30.88-30.88-30.88H0v123.46h0ZM123.01,121.01h29.67v29.67h-29.67v-29.67h0ZM152.57,81.16c0-21.27-17.23-38.52-38.49-38.54h66.17c16.98,0,30.87,13.88,30.87,30.87,0,8.81-3.74,16.79-9.71,22.42-1.57-.16-3.2-.25-4.89-.25-20.84,0-36.43,15.14-36.43,36.28,0,19.17,12.42,31.56,30.57,33.81-1.65.24-3.34.37-5.05.37h-110.13v-15.43l47.51-29.7,10.67-6.66c.5-.29.99-.6,1.47-.91,10.51-6.88,17.44-18.77,17.44-32.26h0ZM196.24,113.04c-7.81,0-11.25,4.8-12.15,11.1h23.54c-.31-6-4.21-11.1-11.4-11.1h0ZM230.71,114.25v21.59h-46.93c.6,8.24,6.6,12.14,13.94,12.14,6.61,0,10.8-2.25,13.06-7.5l17.87,7.03,2.17.85c1.13,13.64,11.18,17.76,21.77,17.76,9.15,0,15-2.24,20.1-5.99v-15.75c-4.05,1.65-7.34,2.25-10.36,2.25-4.94,0-7.64-2.25-7.64-7.94v-24.44h29.69v31.48c0,15.75,10.64,20.39,21.88,20.39,9.15,0,15-2.24,20.1-5.99v-15.75c-4.05,1.65-7.34,2.25-10.36,2.25-4.94,0-7.64-2.25-7.64-7.94v-24.44h17.4v-16.8h-17.4v-18.44h-15.29l-2.24,8.7c-1.6,6.16-4.57,9.74-10.5,9.74h-25.64v-18.44h-15.29l-2.24,8.7c-1.65,6.15-3.75,9.74-10.5,10.79l-4.94.75v15h9ZM344.37,99.34c.16-.03.3-.12.44-.2,4.85-2.25,10.36-3.48,16.29-3.48,10.98,0,19.44,3.7,25.19,9.61,2.53,2.61,4.53,5.64,6,8.98,1.98,4.5,2.99,9.55,2.99,14.84v6.75h-46.93c.6,8.24,6.6,12.14,13.94,12.14,6.6,0,10.8-2.25,13.05-7.5l17.87,7.03c-4.84,11.99-16.24,18.61-31.81,18.61-5.61,0-10.79-.88-15.4-2.56-12.99-4.75-21.34-15.9-21.34-31.62s7.78-26.88,19.7-32.59h0ZM348.66,124.14h23.54c-.29-5.73-3.85-10.64-10.44-11.06-.31-.03-.64-.04-.97-.04-7.8,0-11.24,4.8-12.14,11.1h0ZM395.29,97.45v68.67h24.28v-32.4c0-11.24,5.56-15.44,14.54-15.44,4.64,0,8.25.9,11.55,2.86l1.5-22.95c-1.65-1.35-5.25-2.54-9.29-2.54-8.85,0-15.89,6.14-18.29,13.65v-11.85h-24.28Z"/>
  </g>
</svg>