<?xml version="1.0" encoding="UTF-8"?>
<svg id="Camada_2" xmlns="http://www.w3.org/2000/svg" viewBox="0 0 216.94 163.85">
  <defs>
    <style>
      .cls-1 {
        fill: #f0f0f0;
        fill-rule: evenodd;
      }
    </style>
  </defs>
  <g id="Camada_1-2" data-name="Camada_1">
    <g>
      <path class="cls-1" d="M13.69,159.24c-.32-.35-.36-.78-.49-2.2-.11-1.1-.69-1.66-1.67-1.86,1.17-.14,2.02-1.06,2.02-2.45,0-1.86-1.22-3.03-3.68-3.03h-4.82v9.53h2.53v-3.16h1.72c.86,0,1.33.24,1.4,1.33.07.98.2,1.57.39,1.83h2.6ZM7.58,154.1v-2.34h1.83c1.09,0,1.63.41,1.63,1.18,0,.88-.55,1.15-1.63,1.15h-1.83ZM9.38,145.1c2.59,0,4.94,1.06,6.63,2.75,1.7,1.7,2.75,4.04,2.75,6.63s-1.05,4.93-2.75,6.63c-1.7,1.7-4.04,2.75-6.63,2.75s-4.93-1.05-6.63-2.75c-1.7-1.7-2.75-4.04-2.75-6.63s1.05-4.94,2.75-6.63c1.7-1.69,4.04-2.75,6.63-2.75h0ZM14.18,149.68c1.23,1.23,1.99,2.93,1.99,4.8s-.76,3.58-1.99,4.8c-1.23,1.23-2.93,1.99-4.8,1.99s-3.58-.76-4.8-1.99c-1.23-1.22-1.99-2.92-1.99-4.8s.76-3.57,1.99-4.8c1.22-1.23,2.92-1.99,4.8-1.99s3.57.76,4.8,1.99Z"/>
      <path class="cls-1" d="M74.45,83.78v-3.39c0-.12,0-.23,0-.35,0-10.68,4.42-20.34,11.51-27.25.21-.19.41-.38.6-.58,5.64-5.54,9.17-13.28,9.17-21.76,0-16.76-13.7-30.46-30.46-30.46H0v121.77h74.5l45.24-28.28,1.61-1c3.87-2.77,6.4-7.32,6.4-12.44,0-8.44-6.84-15.28-15.28-15.28s-15.29,6.84-15.29,15.28c0,.12,0,.23,0,.35v3.39h-22.72ZM150.48,80.04c0-20.97-17-37.99-37.96-38.01h65.26c16.75,0,30.45,13.7,30.45,30.45,0,10.68-5.56,20.11-13.94,25.56,13.16,4.65,22.64,17.24,22.64,31.94,0,18.63-15.24,33.87-33.87,33.87h-108.61v-15.23l57.38-35.86c.5-.29.97-.59,1.45-.9,10.36-6.79,17.2-18.5,17.2-31.82h0ZM150.59,119.36v29.27h-29.27v-29.27h29.27Z"/>
    </g>
  </g>
</svg>